<?xml version="1.0" encoding="utf-8"?>
<!-- Generator: Adobe Illustrator 17.0.0, SVG Export Plug-In . SVG Version: 6.00 Build 0)  -->
<!DOCTYPE svg PUBLIC "-//W3C//DTD SVG 1.1//EN" "http://www.w3.org/Graphics/SVG/1.1/DTD/svg11.dtd">
<svg version="1.1" id="图层_1" xmlns="http://www.w3.org/2000/svg" xmlns:xlink="http://www.w3.org/1999/xlink" x="0px" y="0px"
	 width="170.08px" height="170.08px" viewBox="0 0 170.08 170.08" enable-background="new 0 0 170.08 170.08" xml:space="preserve">
<path fill="#272636" d="M88.662,113.176c-18.38,0-33.332-14.952-33.332-33.332c0-3.849,0.675-7.687,1.97-11.297l-0.487-0.484
	l2.394-4.009l29.455-46.924l31.929,50.859l-0.564,0.558c1.295,3.61,1.97,7.448,1.97,11.297
	C121.997,98.224,107.042,113.176,88.662,113.176z M69.738,69.213l-0.339,0.695c-1.597,3.086-2.409,6.428-2.409,9.936
	c0,11.952,9.722,21.671,21.671,21.671c11.952,0,21.674-9.72,21.674-21.671c0-3.507-0.811-6.85-2.409-9.936l-0.453-0.877
	L88.662,39.064L69.738,69.213z"/>
<g>
	<path fill="#272636" d="M47.102,145.979c-10.309,0-19.781-6.041-24.134-15.391c-1.358-2.921-0.094-6.389,2.827-7.744
		c2.904-1.355,6.383-0.097,7.747,2.824c2.446,5.256,7.769,8.649,13.56,8.649s11.115-3.394,13.56-8.649
		c1.358-2.921,4.837-4.179,7.747-2.824c2.921,1.355,4.185,4.823,2.827,7.744C66.882,139.938,57.411,145.979,47.102,145.979z"/>
	<path fill="#272636" d="M85.607,148.018c-11.385,0-21.506-7.237-25.184-18.004c-1.042-3.046,0.586-6.36,3.633-7.402
		c3.041-1.031,6.36,0.581,7.402,3.633c2.067,6.047,7.752,10.112,14.15,10.112c6.272,0,11.866-3.912,14.03-9.771
		c0.424-1.537,1.475-2.904,3.015-3.673c2.89-1.435,6.386-0.268,7.824,2.608c0.091,0.182,0.174,0.376,0.248,0.569
		c0.478,1.264,0.504,2.665,0.06,3.952C107.096,140.792,96.978,148.018,85.607,148.018z"/>
	<path fill="#272636" d="M124.927,148.018c-11.371,0-21.489-7.226-25.173-17.976c-0.211-0.609-0.316-1.247-0.316-1.89
		c0-0.626,0.102-1.258,0.302-1.856c0.902-2.71,3.627-4.39,6.468-3.917c2.289,0.37,4.085,2.044,4.683,4.185
		c2.152,5.87,7.752,9.794,14.036,9.794c6.397,0,12.085-4.065,14.152-10.112c1.042-3.052,4.356-4.658,7.405-3.633
		c3.046,1.042,4.672,4.356,3.63,7.402C146.433,140.781,136.309,148.018,124.927,148.018z"/>
</g>
</svg>
