<?xml version="1.0" encoding="utf-8"?>
<!-- Generator: Adobe Illustrator 17.0.0, SVG Export Plug-In . SVG Version: 6.00 Build 0)  -->
<!DOCTYPE svg PUBLIC "-//W3C//DTD SVG 1.1//EN" "http://www.w3.org/Graphics/SVG/1.1/DTD/svg11.dtd">
<svg version="1.1" id="图层_1" xmlns="http://www.w3.org/2000/svg" xmlns:xlink="http://www.w3.org/1999/xlink" x="0px" y="0px"
	 width="170.08px" height="170.08px" viewBox="0 0 170.08 170.08" enable-background="new 0 0 170.08 170.08" xml:space="preserve">
<g>
	<path fill="#272636" d="M80.296,158.316H46.269V19.617h56.123c23.735,0,41.634,18.503,41.634,43.038
		c0,25.147-18.289,44.849-41.634,44.849H80.296V158.316z M57.93,146.655h10.705V95.842h33.757c17.088,0,29.973-14.266,29.973-33.187
		c0-18.181-12.606-31.377-29.973-31.377H57.93V146.655z M97.401,86.319H69.58V39.475h27.821c12.914,0,23.422,10.508,23.422,23.422
		S110.314,86.319,97.401,86.319z M81.241,74.658h16.159c6.485,0,11.761-5.275,11.761-11.761s-5.275-11.761-11.761-11.761H81.241
		V74.658z"/>
</g>
</svg>
