<?xml version="1.0" encoding="utf-8"?>
<!-- Generator: Adobe Illustrator 17.0.0, SVG Export Plug-In . SVG Version: 6.00 Build 0)  -->
<!DOCTYPE svg PUBLIC "-//W3C//DTD SVG 1.1//EN" "http://www.w3.org/Graphics/SVG/1.1/DTD/svg11.dtd">
<svg version="1.1" id="图层_1" xmlns="http://www.w3.org/2000/svg" xmlns:xlink="http://www.w3.org/1999/xlink" x="0px" y="0px"
	 width="170.08px" height="170.08px" viewBox="0 0 170.08 170.08" enable-background="new 0 0 170.08 170.08" xml:space="preserve">
<path fill="#8C1E1E" d="M109.023,146.423c-1.942,0-3.838-0.968-4.942-2.727c-12.339-19.65-5.227-30.394,0.49-39.026
	c0.86-1.304,1.737-2.619,2.562-3.997c6.144-10.241,3.098-17.554-3.809-31.821c-8.826-18.243,3.006-34.434,10.494-40.444
	c2.505-2.024,6.172-1.614,8.199,0.897c2.01,2.505,1.611,6.167-0.883,8.185c-0.649,0.532-14.258,11.932-7.311,26.283
	c6.668,13.782,12.971,26.799,3.308,42.901c-0.917,1.526-1.885,2.989-2.836,4.436c-5.415,8.171-8.678,13.102-0.342,26.38
	c1.714,2.727,0.888,6.332-1.839,8.04C111.153,146.133,110.082,146.423,109.023,146.423z"/>
<path fill="#8C1E1E" d="M81.891,146.423c-1.939,0-3.835-0.968-4.942-2.727c-12.336-19.644-5.227-30.389,0.487-39.021
	c0.863-1.304,1.74-2.625,2.565-4.003c6.144-10.241,3.098-17.554-3.806-31.821c-8.831-18.243,3.001-34.434,10.491-40.444
	c2.511-2.024,6.178-1.614,8.199,0.897c2.01,2.505,1.611,6.167-0.883,8.185c-0.649,0.532-14.258,11.932-7.311,26.283
	c6.668,13.782,12.971,26.799,3.308,42.901c-0.917,1.526-1.885,2.989-2.841,4.436c-5.406,8.171-8.672,13.108-0.336,26.38
	c1.714,2.727,0.888,6.332-1.836,8.04C84.024,146.133,82.95,146.423,81.891,146.423z"/>
<path fill="#8C1E1E" d="M53.427,146.423c-1.939,0-3.835-0.968-4.942-2.727c-12.336-19.65-5.227-30.389,0.484-39.021
	c0.863-1.304,1.74-2.625,2.565-4.003c6.144-10.238,3.098-17.552-3.806-31.821c-8.828-18.243,3.004-34.434,10.494-40.444
	c2.508-2.021,6.184-1.617,8.196,0.897c2.013,2.505,1.617,6.167-0.883,8.185c-0.649,0.532-14.255,11.932-7.311,26.283
	c6.67,13.785,12.968,26.804,3.308,42.901c-0.914,1.526-1.882,2.989-2.838,4.436c-5.406,8.171-8.672,13.102-0.336,26.38
	c1.714,2.727,0.891,6.332-1.836,8.04C55.559,146.133,54.486,146.423,53.427,146.423z"/>
</svg>
