<?xml version="1.0" encoding="utf-8"?>
<!-- Generator: Adobe Illustrator 17.0.0, SVG Export Plug-In . SVG Version: 6.00 Build 0)  -->
<!DOCTYPE svg PUBLIC "-//W3C//DTD SVG 1.1//EN" "http://www.w3.org/Graphics/SVG/1.1/DTD/svg11.dtd">
<svg version="1.1" id="图层_1" xmlns="http://www.w3.org/2000/svg" xmlns:xlink="http://www.w3.org/1999/xlink" x="0px" y="0px"
	 width="170.08px" height="170.08px" viewBox="0 0 170.08 170.08" enable-background="new 0 0 170.08 170.08" xml:space="preserve">
<g>
	<path fill="#272636" d="M55.531,146.194c-3.18,0-6.067-1.264-8.122-3.559c-2.984-3.342-2.861-7.217-2.67-8.729
		c0.088-0.666,0.236-1.293,0.447-1.896l11.029-31.94l-16.37,0.011c-0.011,0-0.026,0-0.04,0c-4.811,0-8.393-2.001-10.278-5.486
		c-1.842-3.405-1.58-7.61,0.686-10.969l0.512-0.692l53.472-63.271c0.729-0.868,1.611-1.591,2.608-2.144
		c0.9-0.504,3.399-1.722,6.463-1.722c3.177,0,6.064,1.261,8.131,3.553c1.583,1.748,3.354,4.868,2.801,9.794l-0.165,0.942
		l-5.705,28.39l21.267,0.154c4.02,0.307,7.351,2.483,8.979,5.822c1.68,3.416,1.327,7.51-0.957,10.932l-1.048,1.298l-62.54,66.184
		c-0.965,1.008-2.087,1.768-3.351,2.275C58.868,145.853,57.194,146.194,55.531,146.194z M55.531,136.278v4.085V136.278z
		 M72.584,88.398l-15.476,44.817l59.493-62.961l-32.495-0.208l8.501-42.272L41.353,88.421L72.584,88.398z"/>
</g>
</svg>
