<?xml version="1.0" encoding="utf-8"?>
<!-- Generator: Adobe Illustrator 17.0.0, SVG Export Plug-In . SVG Version: 6.00 Build 0)  -->
<!DOCTYPE svg PUBLIC "-//W3C//DTD SVG 1.1//EN" "http://www.w3.org/Graphics/SVG/1.1/DTD/svg11.dtd">
<svg version="1.1" id="图层_1" xmlns="http://www.w3.org/2000/svg" xmlns:xlink="http://www.w3.org/1999/xlink" x="0px" y="0px"
	 width="170.08px" height="170.08px" viewBox="0 0 170.08 170.08" enable-background="new 0 0 170.08 170.08" xml:space="preserve">
<g>
	<path fill="#272636" d="M105.336,154.086c-19.871,0-44.98-19.865-61.061-48.306c-20.551-36.346-20.929-75.253-0.839-86.729
		c4.227-2.41,9.101-3.476,14.476-3.143c0.564-0.081,0.928-0.135,1.299-0.149c0.002,0,0.003,0,0.003,0
		c7.42,0,14.78,11.211,16.536,24.994c1.198,9.401-0.449,18.026-4.301,22.511c-1.618,1.879-3.485,2.858-5.555,2.91
		c-0.099,0.002-2.806,0.073-4.526,2.196c-1.378,1.703-1.747,4.171-1.092,7.33c2.261,5.675,4.896,11.144,7.884,16.429
		c3.254,5.756,6.918,11.269,10.891,16.384l0.359,0.351c1.384,1.411,3.008,2.126,4.826,2.126c3.178,0,5.776-2.25,5.801-2.272
		c1.178-1.79,3.26-3.642,7.664-3.642c5.513,0,12.272,2.831,18.544,7.769c10.37,8.161,16.107,19.858,12.794,26.077
		c-0.323,0.603-0.562,1.013-0.752,1.343c-2.607,4.512-6.343,8.344-10.321,10.619C114.245,153.008,109.997,154.086,105.336,154.086z
		 M56.069,22.216c-3.547,0-6.725,0.792-9.479,2.362c-16.474,9.412-14.968,45.893,3.226,78.069
		c15.004,26.54,37.837,45.074,55.519,45.074c3.54,0,6.725-0.796,9.472-2.365c2.98-1.706,5.933-4.758,7.9-8.167
		c0.242-0.413,0.441-0.755,0.712-1.262c1.019-1.911-1.616-10.61-11.11-18.081c-5.022-3.953-10.619-6.408-14.609-6.408
		c-1.417,0-1.983,0.326-2.057,0.413c-0.385,0.618-0.867,1.181-1.43,1.666c-0.423,0.373-4.519,3.835-9.977,3.835
		c-3.538,0-6.778-1.392-9.367-4.028c-0.18-0.137-0.536-0.51-0.848-0.917c-4.158-5.351-7.996-11.126-11.402-17.148
		c-3.125-5.529-5.883-11.253-8.198-17.015c-0.166-0.415-0.292-0.836-0.379-1.262c-1.058-5.114-0.256-9.36,2.381-12.62
		c3.586-4.425,8.804-4.553,9.387-4.553c-0.023,0,0.291-0.087,0.814-0.696c2.188-2.548,3.908-8.967,2.812-17.557
		C67.829,28.931,61.549,22.12,59.337,22.12c-0.581,0.135-1.179,0.18-1.785,0.141C57.051,22.232,56.555,22.216,56.069,22.216z
		 M140.462,79.989l-6.259-1.147c1.569-8.576-0.289-17.251-5.243-24.427c-4.951-7.174-12.4-11.99-20.974-13.562l1.15-6.259
		c10.243,1.877,19.144,7.633,25.064,16.205C140.117,59.375,142.342,69.741,140.462,79.989z M109.87,75.678l-6.259-1.141
		c0.146-0.803-0.028-1.611-0.488-2.275c-0.475-0.688-1.153-1.127-1.961-1.276l1.144-6.261c2.474,0.454,4.624,1.844,6.051,3.916
		C109.783,70.697,110.324,73.198,109.87,75.678z M124.125,75.379l-6.259-1.15c0.681-3.709-0.127-7.468-2.278-10.583
		c-2.151-3.115-5.376-5.205-9.087-5.886l1.15-6.259c5.379,0.987,10.06,4.015,13.174,8.531
		C123.942,64.545,125.113,69.996,124.125,75.379z"/>
</g>
</svg>
