<svg width="580" height="400" xmlns="http://www.w3.org/2000/svg">
 <!-- Created with Method Draw - http://github.com/duopixel/Method-Draw/ -->
 <g>
  <title>Layer 1</title>
  <path d="m261,137c0,-1 -0.386871,-2.917603 -3,-4c-1.847748,-0.765366 -3,0 -5,0c-1,0 -3,0 -5,0c-1,0 -2,0 -4,0c-2,0 -2.693436,0.458801 -4,1c-0.923874,0.38269 -2.103409,0.906326 -3,2c-2.285873,2.78833 -3.346191,4.70546 -5,7c-1.307449,1.813995 -3.877655,5.06601 -5,7c-1.809723,3.118484 -2.190277,5.881516 -4,9c-1.122345,1.93399 -1,5 -1,9c0,3 0.160416,8.963287 1,13c1.238632,5.955322 1.691238,12.071793 3,17c1.623306,6.112686 4.632965,12.198013 8,18c3.619446,6.236954 7.731155,11.284149 13,16c4.771149,4.270386 11.264008,9.510635 19,14c6.236969,3.619446 13.379974,9.16655 22,13c6.651978,2.958221 13.893982,5.48584 22,7c7.925171,1.480377 15,2 22,2c7,0 15.086121,-0.720032 22,-3c8.114197,-2.675781 15.086121,-6.720032 22,-9c8.114197,-2.675781 16.091156,-5.795685 23,-9c6.085541,-2.822464 13.974487,-6.020508 18,-11c4.217285,-5.216736 5.498291,-11.937958 6,-18c0.577362,-6.976151 -2.795685,-14.091141 -6,-21c-3.763275,-8.114044 -7.797028,-15.156326 -14,-23c-4.844666,-6.126114 -12.205994,-12.74292 -21,-20c-8.198883,-6.765961 -17.361664,-13.398285 -26,-19c-8.390289,-5.440857 -17.162048,-9.374962 -26,-12c-8.190369,-2.432693 -15,-5 -21,-6c-6,-1 -10,-2 -13,-2c-3,0 -8,0 -13,0c-4,0 -11,0 -17,1c-6,1 -12,2 -19,3c-7,1 -11.077469,2.03891 -17,3c-3.121445,0.506538 -5,1 -7,2l0,1" id="svg_2" stroke-width="1.5" stroke="#000" fill="none"/>
  <path d="m217,147c0,-1 -0.693436,-2.458801 -2,-3c-0.923874,-0.38269 -1.593994,-1.513 -4,-3c-2.689987,-1.662506 -4.934143,-3.144287 -7,-4c-2.92157,-1.210144 -5.386871,-2.917603 -8,-4c-2.771637,-1.148056 -7.159271,-1.610641 -10,-3c-3.238922,-1.584106 -4.761078,-2.415894 -8,-4c-2.840729,-1.389351 -4.823746,-3.486259 -7,-4c-0.973251,-0.229752 -1.852737,0.173096 -3,1c-1.813995,1.307449 -2.824432,2.097885 -4,4c-0.525726,0.850655 -1.693436,2.458801 -3,3c-1.847763,0.765366 -4,0 -8,0c-3,0 -9.071793,-0.691238 -14,-2c-6.112686,-1.623314 -11.927666,-2.231735 -18,-4c-3.958679,-1.152771 -5.823746,-1.486259 -8,-2c-0.973251,-0.229752 -2.026749,0.229752 -3,0c-2.176254,-0.513741 -3,-1 -4,-1c-1,0 -3,0 -4,0c-1,0 -2,0 -2,2c0,2 0,4 0,6c0,2 0,5 0,7c0,1 0,2 0,5c0,2 0.540497,4.053497 1,6c0.513741,2.176254 2.080521,3.486923 4,6c2.188545,2.865356 4.337494,4.310013 6,7c1.486992,2.406006 2.558189,3.519287 6,6c1.813995,1.307449 4.159279,2.610641 7,4c3.238922,1.584106 6.133759,2.851242 11,4c4.352509,1.027481 10,3 13,3c3,0 6,0 9,0c3,0 7.053497,0.459503 9,0c2.176254,-0.513748 2.878555,-1.493454 6,-2c0.987091,-0.160187 2.026749,-0.229752 3,0c2.176254,0.513748 4,2 6,3c2,1 4.06601,2.877655 6,4c3.118484,1.809723 5.159271,2.610641 8,4c3.238922,1.584106 6.186005,1.692551 8,3c1.147263,0.826904 3,2 4,2c1,0 2,0 3,0c1,0 3.012909,0.160187 4,0c3.121445,-0.506546 4,-2 7,-3c3,-1 4.053497,-1.540497 6,-2c2.176254,-0.513748 3,-1 5,-1l4,0l3,0" id="svg_3" stroke-width="1.5" stroke="#000" fill="none"/>
  <path d="m393,165c2,0 3.0979,-1.824432 5,-3c1.701294,-1.051468 5.534912,-1.31076 7,-3c2.07193,-2.388962 3,-4 4,-6c1,-2 1.31073,-3.080246 2,-6c0.513733,-2.176254 1,-3 1,-5c0,-2 -0.210144,-5.07843 1,-8c0.855713,-2.065857 1.789856,-4.07843 3,-7c0.855713,-2.065857 2,-4 4,-6c1,-1 2.486267,-1.823746 3,-4c0.229767,-0.973251 1.292908,-2.292892 2,-3c0.707092,-0.707108 0.61731,-2.076118 1,-3c0.541199,-1.306564 1.234619,-2.152245 2,-4c0.541199,-1.306564 2.418854,-3.418861 4,-5c1.581146,-1.581139 2.934143,-3.144295 5,-4c2.92157,-1.210152 4.823761,-2.486259 7,-3c2.919739,-0.689262 5,-1 6,-1c2,0 3.418854,0.418861 5,2c1.581146,1.581139 4.206818,1.81266 6,4c2.285889,2.788322 3.877655,5.066002 5,7c1.809723,3.118477 4.705475,4.346191 7,6c1.813995,1.307449 5,2 6,2c1,0 2,0 4,0c2,0 4.152252,0.765366 6,0c2.613129,-1.08239 5,-3 8,-3c2,0 5.823761,-1.486259 8,-2c0.973236,-0.229752 1.823761,-0.486259 4,-1c0.973236,-0.229752 2.292908,-0.707108 3,0c0.707092,0.707108 -1,2 -3,4c-1,1 -3.346191,2.70546 -5,5c-1.307465,1.813995 -2.346191,3.70546 -4,6c-1.307465,1.813995 -1.458801,2.693436 -2,4c-0.38269,0.923874 -1.224213,1.902832 -2,4c-1.430481,3.867004 -1.486267,5.823746 -2,8c-0.68927,2.919754 0,5 0,7c0,2 0,4 0,6c0,1 0,2 0,4c0,3 0,6 0,8c0,3 1.493469,5.878555 2,9c0.320374,1.974182 1.493469,5.878555 2,9c0.640717,3.948349 0,6 0,10c0,2 0,4 0,6c0,2 0.203003,3.2565 -1,4c-2.690002,1.662506 -3.823761,2.486252 -6,3c-0.973236,0.229752 -2.907776,0.496231 -7,1c-1.985016,0.24437 -5,0 -8,0c-4,0 -8.041321,0.152771 -12,-1c-3.036163,-0.88414 -5,-2 -7,-3c-2,-1 -3.076111,-1.61731 -4,-2c-1.306549,-0.541199 -2,-1 -3,-2c-1,-1 -3,-1 -4,-1c-1,0 -2.878571,-1.493454 -6,-2c-0.987091,-0.160187 -2,0 -3,0c-2,0 -4,0 -5,0c-2,0 -3,-1 -5,-1l0,-1l-2,-1l-1,0" id="svg_4" stroke-width="1.5" stroke="#000" fill="none"/>
  <path d="m279,164c-1,0 -2,1 -2,2c0,2 0,3 0,4c0,2 0,4 0,6c0,1 2,2 3,2c2,0 3,0 4,0c1,0 3.824432,0.902115 5,-1c0.525726,-0.850647 2.042908,-2.71022 3,-3c3.450836,-1.04483 5,-3 7,-4c2,-1 2,-2 2,-3c0,-1 0,-2 0,-3c0,-1 -1.292908,-2.292892 -2,-3c-0.707092,-0.707108 -2,0 -4,0c-2,0 -5,0 -7,0c-6,0 -9,0 -13,0l-4,1l-3,1l-1,1" id="svg_5" stroke-width="1.5" stroke="#000" fill="none"/>
  <path d="m361,173c-1,0 -2,2 -2,4c0,2 0,3 0,4c0,2 1,2 2,2c1,0 3.2565,0.203003 4,-1c1.662506,-2.689987 2,-4 2,-5c0,-2 1.377502,-3.6371 1,-5c-1.100586,-3.973495 -7,-2 -10,-2l-4,0l-5,0" id="svg_6" stroke-width="1.5" stroke="#000" fill="none"/>
  <path d="m309,217c1,0 2.705475,1.346191 5,3c3.627991,2.614899 6.705475,5.346191 9,7c3.627991,2.614899 6,3 7,3c1,0 2.080261,0.689255 5,0c4.352509,-1.027481 7,-3 11,-6c4,-3 9.412079,-4.968552 13,-7c2.461304,-1.39357 4,-3 5,-4l-1,0l-1,0l-1,-1" id="svg_7" stroke-width="1.5" stroke="#000" fill="none"/>
 </g>
</svg>