<?xml version="1.0" encoding="utf-8"?>
<!-- Generator: Adobe Illustrator 17.0.0, SVG Export Plug-In . SVG Version: 6.00 Build 0)  -->
<!DOCTYPE svg PUBLIC "-//W3C//DTD SVG 1.1//EN" "http://www.w3.org/Graphics/SVG/1.1/DTD/svg11.dtd">
<svg version="1.1" id="图层_1" xmlns="http://www.w3.org/2000/svg" xmlns:xlink="http://www.w3.org/1999/xlink" x="0px" y="0px"
	 width="170.08px" height="170.08px" viewBox="0 0 170.08 170.08" enable-background="new 0 0 170.08 170.08" xml:space="preserve">
<g>
	<path fill="#272636" d="M96.608,146.116h-24.03c-22.671,0-40.578,0-40.578-11.607v-2.362c0-22.037,18.203-39.964,40.578-39.964
		h24.03c22.375,0,40.575,17.927,40.575,39.964v2.362C137.183,146.116,118.381,146.116,96.608,146.116z M72.578,98.842
		c-18.704,0-33.92,14.941-33.92,33.305v2.362c0,4.948,18.808,4.948,33.92,4.948h24.03c12.686,0,33.916,0,33.916-4.948v-2.362
		c0-18.364-15.216-33.305-33.916-33.305H72.578z M83.392,89.386c-17.735,0-32.164-14.217-32.164-31.693c0,0.002,0,0,0,0l0,0l0,0
		c0-8.476,3.352-16.441,9.438-22.428c6.073-5.972,14.146-9.263,22.726-9.263c17.732,0,32.161,14.216,32.161,31.691
		S101.124,89.386,83.392,89.386z M57.886,57.693L57.886,57.693c0,13.805,11.441,25.034,25.506,25.034
		c14.061,0,25.502-11.23,25.502-25.034c0-13.803-11.441-25.033-25.502-25.033c-6.824,0-13.236,2.611-18.057,7.351
		C60.529,44.737,57.886,51.017,57.886,57.693L57.886,57.693z"/>
</g>
</svg>
