<?xml version="1.0" encoding="utf-8"?>
<!-- Generator: Adobe Illustrator 17.0.0, SVG Export Plug-In . SVG Version: 6.00 Build 0)  -->
<!DOCTYPE svg PUBLIC "-//W3C//DTD SVG 1.1//EN" "http://www.w3.org/Graphics/SVG/1.1/DTD/svg11.dtd">
<svg version="1.1" id="图层_1" xmlns="http://www.w3.org/2000/svg" xmlns:xlink="http://www.w3.org/1999/xlink" x="0px" y="0px"
	 width="170.08px" height="170.08px" viewBox="0 0 170.08 170.08" enable-background="new 0 0 170.08 170.08" xml:space="preserve">
<g>
	<path fill="#272636" d="M86.046,143.318c-0.96,0-1.879-0.384-2.558-1.064L32.076,90.588c-6.315-6.577-9.767-15.15-9.767-24.184
		c0-19.229,15.645-34.874,34.874-34.874c11.742,0,22.46,5.827,28.862,15.287c6.404-9.461,17.121-15.287,28.862-15.287
		c19.228,0,34.872,15.645,34.872,34.874c0,9.577-3.812,18.512-10.738,25.16l-50.44,50.69
		C87.925,142.934,87.006,143.318,86.046,143.318z M57.183,38.744c-15.252,0-27.659,12.407-27.659,27.659
		c0,7.164,2.739,13.961,7.711,19.143l48.81,49.048l47.942-48.178c5.552-5.332,8.578-12.418,8.578-20.013
		c0-15.252-12.407-27.659-27.658-27.659c-11.196,0-21.218,6.681-25.533,17.021c-0.56,1.342-1.874,2.218-3.329,2.218
		c-1.455,0-2.769-0.875-3.329-2.218C78.403,45.426,68.38,38.744,57.183,38.744z"/>
</g>
</svg>
