<?xml version="1.0" encoding="utf-8"?>
<!-- Generator: Adobe Illustrator 17.0.0, SVG Export Plug-In . SVG Version: 6.00 Build 0)  -->
<!DOCTYPE svg PUBLIC "-//W3C//DTD SVG 1.1//EN" "http://www.w3.org/Graphics/SVG/1.1/DTD/svg11.dtd">
<svg version="1.1" id="图层_1" xmlns="http://www.w3.org/2000/svg" xmlns:xlink="http://www.w3.org/1999/xlink" x="0px" y="0px"
	 width="170.08px" height="170.08px" viewBox="0 0 170.08 170.08" enable-background="new 0 0 170.08 170.08" xml:space="preserve">
<g>
	<path fill="#272636" d="M85.469,145.59c-3.621,0-8.034-0.313-13.176-1.247l0.219-1.219c-0.475,0.097-1.082,0.165-1.842,0.108v0.063
		l-1.349-0.131l0.011-0.068c-0.282-0.046-0.578-0.097-0.894-0.159l-0.009,0.017l-0.097-0.04c-2.719-0.564-6.69-1.947-12.55-4.88
		c-22.448-13.779-20.188-35.394-18.372-52.76c1.005-9.651,2.044-19.633-0.809-27.482c-1.068-2.838-0.094-6.158,2.389-8.017
		c2.594-1.879,5.95-1.853,8.419,0.011c1.677,1.261,3.488,2.463,5.238,3.624c4.538,3.032,9.426,6.295,13.287,10.932
		c1.153-3.94,1.683-8.299,1.683-13.441l0.111-1.136c2.394-12.057,5.107-25.725,19.018-34.076c2.172-1.29,4.857-1.321,7.026-0.117
		c2.232,1.253,3.599,3.596,3.599,6.127c0,13.466,1.332,23.747,4.436,32.948c4.117-5.065,10.192-10.363,18.671-16.404l2.095-1.495
		l2.938,0.467c1.907,0.41,3.587,1.657,4.618,3.422c1.475,2.653,1.156,5.856-0.735,8.077c-2.511,2.927-3.684,6.144-3.695,10.141
		c0,1.56,0.154,3.186,0.456,4.806c0.871,4.76,2.858,9.962,4.777,14.992l3.627,10.298l-5.386,2.335l5.563-1.742
		c0.12,0.382,0.233,0.763,0.325,1.139c0.342,1.27,0.655,2.602,0.877,3.917c0.427,2.044,0.621,4.276,0.535,6.628
		c0.051,0.82,0.068,1.634,0.063,2.443c0,0.387-0.023,0.826-0.051,1.264l-0.051,0.837c-0.102,1.258-0.205,1.976-0.319,2.699
		c-2.625,14.895-10.591,24.262-27.553,32.74l-0.706,0.296c-0.809,0.279-2.733,0.769-8.581,2.181l-2.283,0.558
		C96.085,144.525,92.111,145.59,85.469,145.59z M74.909,132.961c12.051,2.112,18.591,0.159,18.87,0.074l2.756-0.683
		c2.391-0.575,5.916-1.418,7.248-1.794c15.157-7.67,19.2-14.77,20.777-23.704l0.114-0.609c-0.017-0.011,0.063-0.478,0.102-0.94
		l5.865-0.307l-5.825-0.29l0.057-1.082c0.006-0.655-0.006-1.27-0.051-1.89l-0.028-0.347l0.017-0.347
		c0.068-1.48-0.04-2.881-0.33-4.27c-0.211-1.196-0.444-2.175-0.712-3.177l-3.428-9.993l5.153-2.844l-5.449,2.081
		c-2.112-5.543-4.293-11.257-5.358-17.059c-0.433-2.306-0.649-4.646-0.649-6.941c0-0.102,0-0.205,0-0.307
		c-4.014,4.003-6.383,7.553-7.26,10.821l-3.866,14.386l-6.93-13.187c-5.95-11.334-9.082-23.283-9.99-38.682
		c-3.809,5.318-5.224,12.108-6.716,19.619c-0.08,11.687-2.619,20.649-8.196,28.985l-7.103,10.616l-3.368-12.322
		c-1.62-5.93-5.66-9.569-10.645-13.079c0.495,6.867-0.236,13.905-0.954,20.794c-1.777,17.002-3.314,31.687,12.436,41.372
		c1.873,0.917,7.456,2.972,9.89,3.821l0.114,0.023l-0.003,0.017c0.444,0.159,0.772,0.268,0.931,0.319l-0.065,0.211l0.1-0.251
		L74.909,132.961z"/>
</g>
</svg>
